<svg xmlns="http://www.w3.org/2000/svg" width="836" height="856" viewBox="0 0 836 856">
<rect width="100%" height="100%" fill="#ffffff"/>
<text x="418.0" y="45" text-anchor="middle" font-family="Arial" font-size="28" font-weight="700" fill="#0f172a">Pairwise SNP Distance Heatmap</text>
<text x="243.0" y="178" transform="rotate(-55 243.0,178)" text-anchor="start" font-family="Arial" font-size="11" fill="#0f172a">ERR11775007</text>
<text x="289.0" y="178" transform="rotate(-55 289.0,178)" text-anchor="start" font-family="Arial" font-size="11" fill="#0f172a">ERR11775757</text>
<text x="335.0" y="178" transform="rotate(-55 335.0,178)" text-anchor="start" font-family="Arial" font-size="11" fill="#0f172a">ERR13907110</text>
<text x="381.0" y="178" transform="rotate(-55 381.0,178)" text-anchor="start" font-family="Arial" font-size="11" fill="#0f172a">ERR13962884</text>
<text x="427.0" y="178" transform="rotate(-55 427.0,178)" text-anchor="start" font-family="Arial" font-size="11" fill="#0f172a">ERR14936898</text>
<text x="473.0" y="178" transform="rotate(-55 473.0,178)" text-anchor="start" font-family="Arial" font-size="11" fill="#0f172a">SRR23310852</text>
<text x="519.0" y="178" transform="rotate(-55 519.0,178)" text-anchor="start" font-family="Arial" font-size="11" fill="#0f172a">SRR23310856</text>
<text x="565.0" y="178" transform="rotate(-55 565.0,178)" text-anchor="start" font-family="Arial" font-size="11" fill="#0f172a">SRR23310982</text>
<text x="611.0" y="178" transform="rotate(-55 611.0,178)" text-anchor="start" font-family="Arial" font-size="11" fill="#0f172a">SRR29477258</text>
<text x="657.0" y="178" transform="rotate(-55 657.0,178)" text-anchor="start" font-family="Arial" font-size="11" fill="#0f172a">SRR30443484</text>
<text x="703.0" y="178" transform="rotate(-55 703.0,178)" text-anchor="start" font-family="Arial" font-size="11" fill="#0f172a">SRR30443678</text>
<text x="210" y="237.0" text-anchor="end" font-family="Arial" font-size="11" fill="#0f172a">ERR11775007</text>
<text x="210" y="283.0" text-anchor="end" font-family="Arial" font-size="11" fill="#0f172a">ERR11775757</text>
<text x="210" y="329.0" text-anchor="end" font-family="Arial" font-size="11" fill="#0f172a">ERR13907110</text>
<text x="210" y="375.0" text-anchor="end" font-family="Arial" font-size="11" fill="#0f172a">ERR13962884</text>
<text x="210" y="421.0" text-anchor="end" font-family="Arial" font-size="11" fill="#0f172a">ERR14936898</text>
<text x="210" y="467.0" text-anchor="end" font-family="Arial" font-size="11" fill="#0f172a">SRR23310852</text>
<text x="210" y="513.0" text-anchor="end" font-family="Arial" font-size="11" fill="#0f172a">SRR23310856</text>
<text x="210" y="559.0" text-anchor="end" font-family="Arial" font-size="11" fill="#0f172a">SRR23310982</text>
<text x="210" y="605.0" text-anchor="end" font-family="Arial" font-size="11" fill="#0f172a">SRR29477258</text>
<text x="210" y="651.0" text-anchor="end" font-family="Arial" font-size="11" fill="#0f172a">SRR30443484</text>
<text x="210" y="697.0" text-anchor="end" font-family="Arial" font-size="11" fill="#0f172a">SRR30443678</text>
<rect x="220" y="210" width="46" height="46" fill="#dcfce7" stroke="#ffffff" stroke-width="1"/>
<text x="243.0" y="237.0" text-anchor="middle" font-family="Arial" font-size="10" fill="#111827">0</text>
<rect x="266" y="210" width="46" height="46" fill="#dcfce7" stroke="#ffffff" stroke-width="1"/>
<text x="289.0" y="237.0" text-anchor="middle" font-family="Arial" font-size="10" fill="#111827">1217</text>
<rect x="312" y="210" width="46" height="46" fill="#dcfce7" stroke="#ffffff" stroke-width="1"/>
<text x="335.0" y="237.0" text-anchor="middle" font-family="Arial" font-size="10" fill="#111827">1129</text>
<rect x="358" y="210" width="46" height="46" fill="#dcfce7" stroke="#ffffff" stroke-width="1"/>
<text x="381.0" y="237.0" text-anchor="middle" font-family="Arial" font-size="10" fill="#111827">1356</text>
<rect x="404" y="210" width="46" height="46" fill="#dcfce7" stroke="#ffffff" stroke-width="1"/>
<text x="427.0" y="237.0" text-anchor="middle" font-family="Arial" font-size="10" fill="#111827">1310</text>
<rect x="450" y="210" width="46" height="46" fill="#dcfce7" stroke="#ffffff" stroke-width="1"/>
<text x="473.0" y="237.0" text-anchor="middle" font-family="Arial" font-size="10" fill="#111827">1271</text>
<rect x="496" y="210" width="46" height="46" fill="#dcfce7" stroke="#ffffff" stroke-width="1"/>
<text x="519.0" y="237.0" text-anchor="middle" font-family="Arial" font-size="10" fill="#111827">1286</text>
<rect x="542" y="210" width="46" height="46" fill="#dcfce7" stroke="#ffffff" stroke-width="1"/>
<text x="565.0" y="237.0" text-anchor="middle" font-family="Arial" font-size="10" fill="#111827">187</text>
<rect x="588" y="210" width="46" height="46" fill="#fecaca" stroke="#ffffff" stroke-width="1"/>
<text x="611.0" y="237.0" text-anchor="middle" font-family="Arial" font-size="10" fill="#111827">39054</text>
<rect x="634" y="210" width="46" height="46" fill="#dcfce7" stroke="#ffffff" stroke-width="1"/>
<text x="657.0" y="237.0" text-anchor="middle" font-family="Arial" font-size="10" fill="#111827">2256</text>
<rect x="680" y="210" width="46" height="46" fill="#dcfce7" stroke="#ffffff" stroke-width="1"/>
<text x="703.0" y="237.0" text-anchor="middle" font-family="Arial" font-size="10" fill="#111827">2308</text>
<rect x="220" y="256" width="46" height="46" fill="#dcfce7" stroke="#ffffff" stroke-width="1"/>
<text x="243.0" y="283.0" text-anchor="middle" font-family="Arial" font-size="10" fill="#111827">1217</text>
<rect x="266" y="256" width="46" height="46" fill="#dcfce7" stroke="#ffffff" stroke-width="1"/>
<text x="289.0" y="283.0" text-anchor="middle" font-family="Arial" font-size="10" fill="#111827">0</text>
<rect x="312" y="256" width="46" height="46" fill="#dcfce7" stroke="#ffffff" stroke-width="1"/>
<text x="335.0" y="283.0" text-anchor="middle" font-family="Arial" font-size="10" fill="#111827">379</text>
<rect x="358" y="256" width="46" height="46" fill="#dcfce7" stroke="#ffffff" stroke-width="1"/>
<text x="381.0" y="283.0" text-anchor="middle" font-family="Arial" font-size="10" fill="#111827">859</text>
<rect x="404" y="256" width="46" height="46" fill="#dcfce7" stroke="#ffffff" stroke-width="1"/>
<text x="427.0" y="283.0" text-anchor="middle" font-family="Arial" font-size="10" fill="#111827">842</text>
<rect x="450" y="256" width="46" height="46" fill="#dcfce7" stroke="#ffffff" stroke-width="1"/>
<text x="473.0" y="283.0" text-anchor="middle" font-family="Arial" font-size="10" fill="#111827">811</text>
<rect x="496" y="256" width="46" height="46" fill="#dcfce7" stroke="#ffffff" stroke-width="1"/>
<text x="519.0" y="283.0" text-anchor="middle" font-family="Arial" font-size="10" fill="#111827">823</text>
<rect x="542" y="256" width="46" height="46" fill="#dcfce7" stroke="#ffffff" stroke-width="1"/>
<text x="565.0" y="283.0" text-anchor="middle" font-family="Arial" font-size="10" fill="#111827">1203</text>
<rect x="588" y="256" width="46" height="46" fill="#fecaca" stroke="#ffffff" stroke-width="1"/>
<text x="611.0" y="283.0" text-anchor="middle" font-family="Arial" font-size="10" fill="#111827">39200</text>
<rect x="634" y="256" width="46" height="46" fill="#dcfce7" stroke="#ffffff" stroke-width="1"/>
<text x="657.0" y="283.0" text-anchor="middle" font-family="Arial" font-size="10" fill="#111827">2157</text>
<rect x="680" y="256" width="46" height="46" fill="#dcfce7" stroke="#ffffff" stroke-width="1"/>
<text x="703.0" y="283.0" text-anchor="middle" font-family="Arial" font-size="10" fill="#111827">2222</text>
<rect x="220" y="302" width="46" height="46" fill="#dcfce7" stroke="#ffffff" stroke-width="1"/>
<text x="243.0" y="329.0" text-anchor="middle" font-family="Arial" font-size="10" fill="#111827">1129</text>
<rect x="266" y="302" width="46" height="46" fill="#dcfce7" stroke="#ffffff" stroke-width="1"/>
<text x="289.0" y="329.0" text-anchor="middle" font-family="Arial" font-size="10" fill="#111827">379</text>
<rect x="312" y="302" width="46" height="46" fill="#dcfce7" stroke="#ffffff" stroke-width="1"/>
<text x="335.0" y="329.0" text-anchor="middle" font-family="Arial" font-size="10" fill="#111827">0</text>
<rect x="358" y="302" width="46" height="46" fill="#dcfce7" stroke="#ffffff" stroke-width="1"/>
<text x="381.0" y="329.0" text-anchor="middle" font-family="Arial" font-size="10" fill="#111827">810</text>
<rect x="404" y="302" width="46" height="46" fill="#dcfce7" stroke="#ffffff" stroke-width="1"/>
<text x="427.0" y="329.0" text-anchor="middle" font-family="Arial" font-size="10" fill="#111827">790</text>
<rect x="450" y="302" width="46" height="46" fill="#dcfce7" stroke="#ffffff" stroke-width="1"/>
<text x="473.0" y="329.0" text-anchor="middle" font-family="Arial" font-size="10" fill="#111827">769</text>
<rect x="496" y="302" width="46" height="46" fill="#dcfce7" stroke="#ffffff" stroke-width="1"/>
<text x="519.0" y="329.0" text-anchor="middle" font-family="Arial" font-size="10" fill="#111827">767</text>
<rect x="542" y="302" width="46" height="46" fill="#dcfce7" stroke="#ffffff" stroke-width="1"/>
<text x="565.0" y="329.0" text-anchor="middle" font-family="Arial" font-size="10" fill="#111827">1120</text>
<rect x="588" y="302" width="46" height="46" fill="#fecaca" stroke="#ffffff" stroke-width="1"/>
<text x="611.0" y="329.0" text-anchor="middle" font-family="Arial" font-size="10" fill="#111827">34827</text>
<rect x="634" y="302" width="46" height="46" fill="#dcfce7" stroke="#ffffff" stroke-width="1"/>
<text x="657.0" y="329.0" text-anchor="middle" font-family="Arial" font-size="10" fill="#111827">1970</text>
<rect x="680" y="302" width="46" height="46" fill="#dcfce7" stroke="#ffffff" stroke-width="1"/>
<text x="703.0" y="329.0" text-anchor="middle" font-family="Arial" font-size="10" fill="#111827">2023</text>
<rect x="220" y="348" width="46" height="46" fill="#dcfce7" stroke="#ffffff" stroke-width="1"/>
<text x="243.0" y="375.0" text-anchor="middle" font-family="Arial" font-size="10" fill="#111827">1356</text>
<rect x="266" y="348" width="46" height="46" fill="#dcfce7" stroke="#ffffff" stroke-width="1"/>
<text x="289.0" y="375.0" text-anchor="middle" font-family="Arial" font-size="10" fill="#111827">859</text>
<rect x="312" y="348" width="46" height="46" fill="#dcfce7" stroke="#ffffff" stroke-width="1"/>
<text x="335.0" y="375.0" text-anchor="middle" font-family="Arial" font-size="10" fill="#111827">810</text>
<rect x="358" y="348" width="46" height="46" fill="#dcfce7" stroke="#ffffff" stroke-width="1"/>
<text x="381.0" y="375.0" text-anchor="middle" font-family="Arial" font-size="10" fill="#111827">0</text>
<rect x="404" y="348" width="46" height="46" fill="#dcfce7" stroke="#ffffff" stroke-width="1"/>
<text x="427.0" y="375.0" text-anchor="middle" font-family="Arial" font-size="10" fill="#111827">730</text>
<rect x="450" y="348" width="46" height="46" fill="#dcfce7" stroke="#ffffff" stroke-width="1"/>
<text x="473.0" y="375.0" text-anchor="middle" font-family="Arial" font-size="10" fill="#111827">786</text>
<rect x="496" y="348" width="46" height="46" fill="#dcfce7" stroke="#ffffff" stroke-width="1"/>
<text x="519.0" y="375.0" text-anchor="middle" font-family="Arial" font-size="10" fill="#111827">922</text>
<rect x="542" y="348" width="46" height="46" fill="#dcfce7" stroke="#ffffff" stroke-width="1"/>
<text x="565.0" y="375.0" text-anchor="middle" font-family="Arial" font-size="10" fill="#111827">1315</text>
<rect x="588" y="348" width="46" height="46" fill="#fecaca" stroke="#ffffff" stroke-width="1"/>
<text x="611.0" y="375.0" text-anchor="middle" font-family="Arial" font-size="10" fill="#111827">39436</text>
<rect x="634" y="348" width="46" height="46" fill="#dcfce7" stroke="#ffffff" stroke-width="1"/>
<text x="657.0" y="375.0" text-anchor="middle" font-family="Arial" font-size="10" fill="#111827">2263</text>
<rect x="680" y="348" width="46" height="46" fill="#dcfce7" stroke="#ffffff" stroke-width="1"/>
<text x="703.0" y="375.0" text-anchor="middle" font-family="Arial" font-size="10" fill="#111827">2317</text>
<rect x="220" y="394" width="46" height="46" fill="#dcfce7" stroke="#ffffff" stroke-width="1"/>
<text x="243.0" y="421.0" text-anchor="middle" font-family="Arial" font-size="10" fill="#111827">1310</text>
<rect x="266" y="394" width="46" height="46" fill="#dcfce7" stroke="#ffffff" stroke-width="1"/>
<text x="289.0" y="421.0" text-anchor="middle" font-family="Arial" font-size="10" fill="#111827">842</text>
<rect x="312" y="394" width="46" height="46" fill="#dcfce7" stroke="#ffffff" stroke-width="1"/>
<text x="335.0" y="421.0" text-anchor="middle" font-family="Arial" font-size="10" fill="#111827">790</text>
<rect x="358" y="394" width="46" height="46" fill="#dcfce7" stroke="#ffffff" stroke-width="1"/>
<text x="381.0" y="421.0" text-anchor="middle" font-family="Arial" font-size="10" fill="#111827">730</text>
<rect x="404" y="394" width="46" height="46" fill="#dcfce7" stroke="#ffffff" stroke-width="1"/>
<text x="427.0" y="421.0" text-anchor="middle" font-family="Arial" font-size="10" fill="#111827">0</text>
<rect x="450" y="394" width="46" height="46" fill="#dcfce7" stroke="#ffffff" stroke-width="1"/>
<text x="473.0" y="421.0" text-anchor="middle" font-family="Arial" font-size="10" fill="#111827">768</text>
<rect x="496" y="394" width="46" height="46" fill="#dcfce7" stroke="#ffffff" stroke-width="1"/>
<text x="519.0" y="421.0" text-anchor="middle" font-family="Arial" font-size="10" fill="#111827">891</text>
<rect x="542" y="394" width="46" height="46" fill="#dcfce7" stroke="#ffffff" stroke-width="1"/>
<text x="565.0" y="421.0" text-anchor="middle" font-family="Arial" font-size="10" fill="#111827">1277</text>
<rect x="588" y="394" width="46" height="46" fill="#fecaca" stroke="#ffffff" stroke-width="1"/>
<text x="611.0" y="421.0" text-anchor="middle" font-family="Arial" font-size="10" fill="#111827">38976</text>
<rect x="634" y="394" width="46" height="46" fill="#dcfce7" stroke="#ffffff" stroke-width="1"/>
<text x="657.0" y="421.0" text-anchor="middle" font-family="Arial" font-size="10" fill="#111827">2199</text>
<rect x="680" y="394" width="46" height="46" fill="#dcfce7" stroke="#ffffff" stroke-width="1"/>
<text x="703.0" y="421.0" text-anchor="middle" font-family="Arial" font-size="10" fill="#111827">2258</text>
<rect x="220" y="440" width="46" height="46" fill="#dcfce7" stroke="#ffffff" stroke-width="1"/>
<text x="243.0" y="467.0" text-anchor="middle" font-family="Arial" font-size="10" fill="#111827">1271</text>
<rect x="266" y="440" width="46" height="46" fill="#dcfce7" stroke="#ffffff" stroke-width="1"/>
<text x="289.0" y="467.0" text-anchor="middle" font-family="Arial" font-size="10" fill="#111827">811</text>
<rect x="312" y="440" width="46" height="46" fill="#dcfce7" stroke="#ffffff" stroke-width="1"/>
<text x="335.0" y="467.0" text-anchor="middle" font-family="Arial" font-size="10" fill="#111827">769</text>
<rect x="358" y="440" width="46" height="46" fill="#dcfce7" stroke="#ffffff" stroke-width="1"/>
<text x="381.0" y="467.0" text-anchor="middle" font-family="Arial" font-size="10" fill="#111827">786</text>
<rect x="404" y="440" width="46" height="46" fill="#dcfce7" stroke="#ffffff" stroke-width="1"/>
<text x="427.0" y="467.0" text-anchor="middle" font-family="Arial" font-size="10" fill="#111827">768</text>
<rect x="450" y="440" width="46" height="46" fill="#dcfce7" stroke="#ffffff" stroke-width="1"/>
<text x="473.0" y="467.0" text-anchor="middle" font-family="Arial" font-size="10" fill="#111827">0</text>
<rect x="496" y="440" width="46" height="46" fill="#dcfce7" stroke="#ffffff" stroke-width="1"/>
<text x="519.0" y="467.0" text-anchor="middle" font-family="Arial" font-size="10" fill="#111827">867</text>
<rect x="542" y="440" width="46" height="46" fill="#dcfce7" stroke="#ffffff" stroke-width="1"/>
<text x="565.0" y="467.0" text-anchor="middle" font-family="Arial" font-size="10" fill="#111827">1247</text>
<rect x="588" y="440" width="46" height="46" fill="#fecaca" stroke="#ffffff" stroke-width="1"/>
<text x="611.0" y="467.0" text-anchor="middle" font-family="Arial" font-size="10" fill="#111827">38936</text>
<rect x="634" y="440" width="46" height="46" fill="#dcfce7" stroke="#ffffff" stroke-width="1"/>
<text x="657.0" y="467.0" text-anchor="middle" font-family="Arial" font-size="10" fill="#111827">2190</text>
<rect x="680" y="440" width="46" height="46" fill="#dcfce7" stroke="#ffffff" stroke-width="1"/>
<text x="703.0" y="467.0" text-anchor="middle" font-family="Arial" font-size="10" fill="#111827">2241</text>
<rect x="220" y="486" width="46" height="46" fill="#dcfce7" stroke="#ffffff" stroke-width="1"/>
<text x="243.0" y="513.0" text-anchor="middle" font-family="Arial" font-size="10" fill="#111827">1286</text>
<rect x="266" y="486" width="46" height="46" fill="#dcfce7" stroke="#ffffff" stroke-width="1"/>
<text x="289.0" y="513.0" text-anchor="middle" font-family="Arial" font-size="10" fill="#111827">823</text>
<rect x="312" y="486" width="46" height="46" fill="#dcfce7" stroke="#ffffff" stroke-width="1"/>
<text x="335.0" y="513.0" text-anchor="middle" font-family="Arial" font-size="10" fill="#111827">767</text>
<rect x="358" y="486" width="46" height="46" fill="#dcfce7" stroke="#ffffff" stroke-width="1"/>
<text x="381.0" y="513.0" text-anchor="middle" font-family="Arial" font-size="10" fill="#111827">922</text>
<rect x="404" y="486" width="46" height="46" fill="#dcfce7" stroke="#ffffff" stroke-width="1"/>
<text x="427.0" y="513.0" text-anchor="middle" font-family="Arial" font-size="10" fill="#111827">891</text>
<rect x="450" y="486" width="46" height="46" fill="#dcfce7" stroke="#ffffff" stroke-width="1"/>
<text x="473.0" y="513.0" text-anchor="middle" font-family="Arial" font-size="10" fill="#111827">867</text>
<rect x="496" y="486" width="46" height="46" fill="#dcfce7" stroke="#ffffff" stroke-width="1"/>
<text x="519.0" y="513.0" text-anchor="middle" font-family="Arial" font-size="10" fill="#111827">0</text>
<rect x="542" y="486" width="46" height="46" fill="#dcfce7" stroke="#ffffff" stroke-width="1"/>
<text x="565.0" y="513.0" text-anchor="middle" font-family="Arial" font-size="10" fill="#111827">1249</text>
<rect x="588" y="486" width="46" height="46" fill="#fecaca" stroke="#ffffff" stroke-width="1"/>
<text x="611.0" y="513.0" text-anchor="middle" font-family="Arial" font-size="10" fill="#111827">39060</text>
<rect x="634" y="486" width="46" height="46" fill="#dcfce7" stroke="#ffffff" stroke-width="1"/>
<text x="657.0" y="513.0" text-anchor="middle" font-family="Arial" font-size="10" fill="#111827">2197</text>
<rect x="680" y="486" width="46" height="46" fill="#dcfce7" stroke="#ffffff" stroke-width="1"/>
<text x="703.0" y="513.0" text-anchor="middle" font-family="Arial" font-size="10" fill="#111827">2258</text>
<rect x="220" y="532" width="46" height="46" fill="#dcfce7" stroke="#ffffff" stroke-width="1"/>
<text x="243.0" y="559.0" text-anchor="middle" font-family="Arial" font-size="10" fill="#111827">187</text>
<rect x="266" y="532" width="46" height="46" fill="#dcfce7" stroke="#ffffff" stroke-width="1"/>
<text x="289.0" y="559.0" text-anchor="middle" font-family="Arial" font-size="10" fill="#111827">1203</text>
<rect x="312" y="532" width="46" height="46" fill="#dcfce7" stroke="#ffffff" stroke-width="1"/>
<text x="335.0" y="559.0" text-anchor="middle" font-family="Arial" font-size="10" fill="#111827">1120</text>
<rect x="358" y="532" width="46" height="46" fill="#dcfce7" stroke="#ffffff" stroke-width="1"/>
<text x="381.0" y="559.0" text-anchor="middle" font-family="Arial" font-size="10" fill="#111827">1315</text>
<rect x="404" y="532" width="46" height="46" fill="#dcfce7" stroke="#ffffff" stroke-width="1"/>
<text x="427.0" y="559.0" text-anchor="middle" font-family="Arial" font-size="10" fill="#111827">1277</text>
<rect x="450" y="532" width="46" height="46" fill="#dcfce7" stroke="#ffffff" stroke-width="1"/>
<text x="473.0" y="559.0" text-anchor="middle" font-family="Arial" font-size="10" fill="#111827">1247</text>
<rect x="496" y="532" width="46" height="46" fill="#dcfce7" stroke="#ffffff" stroke-width="1"/>
<text x="519.0" y="559.0" text-anchor="middle" font-family="Arial" font-size="10" fill="#111827">1249</text>
<rect x="542" y="532" width="46" height="46" fill="#dcfce7" stroke="#ffffff" stroke-width="1"/>
<text x="565.0" y="559.0" text-anchor="middle" font-family="Arial" font-size="10" fill="#111827">0</text>
<rect x="588" y="532" width="46" height="46" fill="#fecaca" stroke="#ffffff" stroke-width="1"/>
<text x="611.0" y="559.0" text-anchor="middle" font-family="Arial" font-size="10" fill="#111827">38989</text>
<rect x="634" y="532" width="46" height="46" fill="#dcfce7" stroke="#ffffff" stroke-width="1"/>
<text x="657.0" y="559.0" text-anchor="middle" font-family="Arial" font-size="10" fill="#111827">2231</text>
<rect x="680" y="532" width="46" height="46" fill="#dcfce7" stroke="#ffffff" stroke-width="1"/>
<text x="703.0" y="559.0" text-anchor="middle" font-family="Arial" font-size="10" fill="#111827">2284</text>
<rect x="220" y="578" width="46" height="46" fill="#fecaca" stroke="#ffffff" stroke-width="1"/>
<text x="243.0" y="605.0" text-anchor="middle" font-family="Arial" font-size="10" fill="#111827">39054</text>
<rect x="266" y="578" width="46" height="46" fill="#fecaca" stroke="#ffffff" stroke-width="1"/>
<text x="289.0" y="605.0" text-anchor="middle" font-family="Arial" font-size="10" fill="#111827">39200</text>
<rect x="312" y="578" width="46" height="46" fill="#fecaca" stroke="#ffffff" stroke-width="1"/>
<text x="335.0" y="605.0" text-anchor="middle" font-family="Arial" font-size="10" fill="#111827">34827</text>
<rect x="358" y="578" width="46" height="46" fill="#fecaca" stroke="#ffffff" stroke-width="1"/>
<text x="381.0" y="605.0" text-anchor="middle" font-family="Arial" font-size="10" fill="#111827">39436</text>
<rect x="404" y="578" width="46" height="46" fill="#fecaca" stroke="#ffffff" stroke-width="1"/>
<text x="427.0" y="605.0" text-anchor="middle" font-family="Arial" font-size="10" fill="#111827">38976</text>
<rect x="450" y="578" width="46" height="46" fill="#fecaca" stroke="#ffffff" stroke-width="1"/>
<text x="473.0" y="605.0" text-anchor="middle" font-family="Arial" font-size="10" fill="#111827">38936</text>
<rect x="496" y="578" width="46" height="46" fill="#fecaca" stroke="#ffffff" stroke-width="1"/>
<text x="519.0" y="605.0" text-anchor="middle" font-family="Arial" font-size="10" fill="#111827">39060</text>
<rect x="542" y="578" width="46" height="46" fill="#fecaca" stroke="#ffffff" stroke-width="1"/>
<text x="565.0" y="605.0" text-anchor="middle" font-family="Arial" font-size="10" fill="#111827">38989</text>
<rect x="588" y="578" width="46" height="46" fill="#dcfce7" stroke="#ffffff" stroke-width="1"/>
<text x="611.0" y="605.0" text-anchor="middle" font-family="Arial" font-size="10" fill="#111827">0</text>
<rect x="634" y="578" width="46" height="46" fill="#fecaca" stroke="#ffffff" stroke-width="1"/>
<text x="657.0" y="605.0" text-anchor="middle" font-family="Arial" font-size="10" fill="#111827">39067</text>
<rect x="680" y="578" width="46" height="46" fill="#fecaca" stroke="#ffffff" stroke-width="1"/>
<text x="703.0" y="605.0" text-anchor="middle" font-family="Arial" font-size="10" fill="#111827">39038</text>
<rect x="220" y="624" width="46" height="46" fill="#dcfce7" stroke="#ffffff" stroke-width="1"/>
<text x="243.0" y="651.0" text-anchor="middle" font-family="Arial" font-size="10" fill="#111827">2256</text>
<rect x="266" y="624" width="46" height="46" fill="#dcfce7" stroke="#ffffff" stroke-width="1"/>
<text x="289.0" y="651.0" text-anchor="middle" font-family="Arial" font-size="10" fill="#111827">2157</text>
<rect x="312" y="624" width="46" height="46" fill="#dcfce7" stroke="#ffffff" stroke-width="1"/>
<text x="335.0" y="651.0" text-anchor="middle" font-family="Arial" font-size="10" fill="#111827">1970</text>
<rect x="358" y="624" width="46" height="46" fill="#dcfce7" stroke="#ffffff" stroke-width="1"/>
<text x="381.0" y="651.0" text-anchor="middle" font-family="Arial" font-size="10" fill="#111827">2263</text>
<rect x="404" y="624" width="46" height="46" fill="#dcfce7" stroke="#ffffff" stroke-width="1"/>
<text x="427.0" y="651.0" text-anchor="middle" font-family="Arial" font-size="10" fill="#111827">2199</text>
<rect x="450" y="624" width="46" height="46" fill="#dcfce7" stroke="#ffffff" stroke-width="1"/>
<text x="473.0" y="651.0" text-anchor="middle" font-family="Arial" font-size="10" fill="#111827">2190</text>
<rect x="496" y="624" width="46" height="46" fill="#dcfce7" stroke="#ffffff" stroke-width="1"/>
<text x="519.0" y="651.0" text-anchor="middle" font-family="Arial" font-size="10" fill="#111827">2197</text>
<rect x="542" y="624" width="46" height="46" fill="#dcfce7" stroke="#ffffff" stroke-width="1"/>
<text x="565.0" y="651.0" text-anchor="middle" font-family="Arial" font-size="10" fill="#111827">2231</text>
<rect x="588" y="624" width="46" height="46" fill="#fecaca" stroke="#ffffff" stroke-width="1"/>
<text x="611.0" y="651.0" text-anchor="middle" font-family="Arial" font-size="10" fill="#111827">39067</text>
<rect x="634" y="624" width="46" height="46" fill="#dcfce7" stroke="#ffffff" stroke-width="1"/>
<text x="657.0" y="651.0" text-anchor="middle" font-family="Arial" font-size="10" fill="#111827">0</text>
<rect x="680" y="624" width="46" height="46" fill="#dcfce7" stroke="#ffffff" stroke-width="1"/>
<text x="703.0" y="651.0" text-anchor="middle" font-family="Arial" font-size="10" fill="#111827">709</text>
<rect x="220" y="670" width="46" height="46" fill="#dcfce7" stroke="#ffffff" stroke-width="1"/>
<text x="243.0" y="697.0" text-anchor="middle" font-family="Arial" font-size="10" fill="#111827">2308</text>
<rect x="266" y="670" width="46" height="46" fill="#dcfce7" stroke="#ffffff" stroke-width="1"/>
<text x="289.0" y="697.0" text-anchor="middle" font-family="Arial" font-size="10" fill="#111827">2222</text>
<rect x="312" y="670" width="46" height="46" fill="#dcfce7" stroke="#ffffff" stroke-width="1"/>
<text x="335.0" y="697.0" text-anchor="middle" font-family="Arial" font-size="10" fill="#111827">2023</text>
<rect x="358" y="670" width="46" height="46" fill="#dcfce7" stroke="#ffffff" stroke-width="1"/>
<text x="381.0" y="697.0" text-anchor="middle" font-family="Arial" font-size="10" fill="#111827">2317</text>
<rect x="404" y="670" width="46" height="46" fill="#dcfce7" stroke="#ffffff" stroke-width="1"/>
<text x="427.0" y="697.0" text-anchor="middle" font-family="Arial" font-size="10" fill="#111827">2258</text>
<rect x="450" y="670" width="46" height="46" fill="#dcfce7" stroke="#ffffff" stroke-width="1"/>
<text x="473.0" y="697.0" text-anchor="middle" font-family="Arial" font-size="10" fill="#111827">2241</text>
<rect x="496" y="670" width="46" height="46" fill="#dcfce7" stroke="#ffffff" stroke-width="1"/>
<text x="519.0" y="697.0" text-anchor="middle" font-family="Arial" font-size="10" fill="#111827">2258</text>
<rect x="542" y="670" width="46" height="46" fill="#dcfce7" stroke="#ffffff" stroke-width="1"/>
<text x="565.0" y="697.0" text-anchor="middle" font-family="Arial" font-size="10" fill="#111827">2284</text>
<rect x="588" y="670" width="46" height="46" fill="#fecaca" stroke="#ffffff" stroke-width="1"/>
<text x="611.0" y="697.0" text-anchor="middle" font-family="Arial" font-size="10" fill="#111827">39038</text>
<rect x="634" y="670" width="46" height="46" fill="#dcfce7" stroke="#ffffff" stroke-width="1"/>
<text x="657.0" y="697.0" text-anchor="middle" font-family="Arial" font-size="10" fill="#111827">709</text>
<rect x="680" y="670" width="46" height="46" fill="#dcfce7" stroke="#ffffff" stroke-width="1"/>
<text x="703.0" y="697.0" text-anchor="middle" font-family="Arial" font-size="10" fill="#111827">0</text>
<text x="418.0" y="798" text-anchor="middle" font-family="Arial" font-size="12" fill="#475569">Reference sequence excluded. Lower values indicate closer genomic relatedness.</text>
<text x="418.0" y="820" text-anchor="middle" font-family="Arial" font-size="12" fill="#475569">Color scale: green = closest, yellow/orange = intermediate, red = more distant.</text>
</svg>