<svg xmlns="http://www.w3.org/2000/svg" width="1000" height="520" viewBox="0 0 1000 520">
<rect width="100%" height="100%" fill="#ffffff"/>
<text x="500.0" y="35" text-anchor="middle" font-family="Arial" font-size="22" font-weight="700" fill="#0f172a">Lineage Distribution</text>
<text x="500.0" y="58" text-anchor="middle" font-family="Arial" font-size="12" fill="#475569">TB-Profiler lineage calls where available; unresolved Kraken-supported MTBC samples are shown separately.</text>
<line x1="120" y1="70" x2="120" y2="440" stroke="#334155" stroke-width="2"/>
<line x1="120" y1="440" x2="940" y2="440" stroke="#334155" stroke-width="2"/>
<rect x="144" y="429" width="135" height="11" rx="8" fill="#2563eb"/>
<text x="211.5" y="421" text-anchor="middle" font-family="Arial" font-size="14" font-weight="700" fill="#0f172a">1</text>
<text x="211.5" y="470" text-anchor="middle" font-family="Arial" font-size="13" fill="#0f172a">L1</text>
<rect x="303" y="384" width="135" height="56" rx="8" fill="#2563eb"/>
<text x="370.5" y="376" text-anchor="middle" font-family="Arial" font-size="14" font-weight="700" fill="#0f172a">5</text>
<text x="370.5" y="470" text-anchor="middle" font-family="Arial" font-size="13" fill="#0f172a">L2</text>
<rect x="462" y="384" width="135" height="56" rx="8" fill="#2563eb"/>
<text x="529.5" y="376" text-anchor="middle" font-family="Arial" font-size="14" font-weight="700" fill="#0f172a">5</text>
<text x="529.5" y="470" text-anchor="middle" font-family="Arial" font-size="13" fill="#0f172a">L3</text>
<rect x="621" y="90" width="135" height="350" rx="8" fill="#2563eb"/>
<text x="688.5" y="82" text-anchor="middle" font-family="Arial" font-size="14" font-weight="700" fill="#0f172a">31</text>
<text x="688.5" y="470" text-anchor="middle" font-family="Arial" font-size="13" fill="#0f172a">L4</text>
<rect x="780" y="407" width="135" height="33" rx="8" fill="#2563eb"/>
<text x="847.5" y="399" text-anchor="middle" font-family="Arial" font-size="14" font-weight="700" fill="#0f172a">3</text>
<text x="847.5" y="470" text-anchor="middle" font-family="Arial" font-size="13" fill="#0f172a">Not resolved by TB-Profiler</text>
<text x="500.0" y="496" text-anchor="middle" font-family="Arial" font-size="12" fill="#475569">Lineage groups are summarized from TB-Profiler main-lineage and sub-lineage fields. Lineage does not determine phylogeny selection.</text></svg>